<svg id="Layer_1" data-name="Layer 1" xmlns="http://www.w3.org/2000/svg" viewBox="0 0 503.79 419.41"><defs><style>.cls-1,.cls-2{fill:#fff;}.cls-2{font-size:39.59px;stroke:#fff;stroke-miterlimit:10;font-family:BerlinSansFBDemi-Bold, Berlin Sans FB Demi;font-weight:700;}
.logo{
    font-size:125px;
    
  
     
}
</style></defs><title>icon ninja</title><path class="cls-1" d="M389.44,204.48c-.78-7.16-2-14.26-3.24-21.33S383.6,169,382,162s-3.26-13.93-5.24-20.71c-1-3.38-2.11-6.72-3.36-9.93-.62-1.6-1.29-3.17-2-4.64-.36-.73-.73-1.45-1.12-2.09-.19-.33-.38-.61-.57-.89l-.26-.34-.09-.11s0,0,0,0h0l.13.15.41.36c-10.23-7.21-21.12-13.34-32.69-17.33a98.1,98.1,0,0,0-35.59-5.59c-1.5,0-3,.18-4.48.3s-3,.22-4.47.41l-4.44.7c-.74.13-1.48.2-2.21.38l-2.2.49a101.62,101.62,0,0,0-17.16,5.3,113.73,113.73,0,0,0-16.12,8c-2.58,1.53-5.08,3.18-7.52,4.89-1.19.89-2.41,1.75-3.55,2.66-.58.45-1.14.91-1.68,1.36-.28.23-.56.46-.8.68l-.66.58,1.47-1.74a50.67,50.67,0,0,0-4,8.59c-1.17,3.14-2.2,6.45-3.13,9.83-1.83,6.77-3.26,13.82-4.46,20.93s-2.21,14.32-3,21.56q-.63,5.43-1.11,10.87c-.33,3.6-.62,7.32-.83,10.79l-10.86,8.78c.27,0,.61.07.83.08l.31,0,.58,0a4.24,4.24,0,0,0,.83-.13,3.28,3.28,0,0,0,.68-.19c.22-.09.39-.13.58-.22a8.05,8.05,0,0,0,.87-.54c.25-.24.38-.3.51-.45a1.6,1.6,0,0,0,.16-.23s.06,0,.09-.06.07-.17.07-.14a.2.2,0,0,1,0,.11l0,0s0,.11,0,.17a3.57,3.57,0,0,1-.1.35,1.51,1.51,0,0,0-.1.43c-.05.36-.12.71-.19,1.07l-.09,1.32-.06.66v.75c0,1,0,2,.08,3.06s.1,2.11.27,3.24.24,2.21.41,3.34l.56,3.41c.17,1.1.43,2.35.65,3.53s.45,2.4.71,3.58c.47,2.38,1,4.73,1.51,7.05s1.11,4.58,1.73,6.63l.22.77.24.7.23.69.22.57.1.27.08.16.06.17c0,.08,0,0,0,0s0,0-.08-.11a3.33,3.33,0,0,0-.43-.56l-.25-.29-.4-.4c-.14-.12-.28-.25-.43-.36l-.22-.17-.2-.14-.3-.2a8.24,8.24,0,0,0-1.31-.7c-.23-.1-.46-.18-.7-.26l-.5-.15-.75-.17a9.8,9.8,0,0,0-1.54-.15c-.26,0-.51,0-.77,0s-.45,0-.88.11a8.65,8.65,0,0,0-2.21.66c-.17.07-.34.16-.51.24s-.32.17-.68.39a9.76,9.76,0,0,0-1.67,1.33l13.38-.15a26.12,26.12,0,0,1,2.37,2.69c.32.43.66.86,1,1.28l.78,1.22a47.42,47.42,0,0,1,2.6,4.65c1.49,3,2.68,5.93,3.79,8.84,2.18,5.79,4,11.51,5.59,17.24s3.05,11.46,4.39,17.19S245,320,246.13,325.86l-.61-1.93a95.58,95.58,0,0,0,8.42,15.64,60.92,60.92,0,0,0,11.25,12.71,43.88,43.88,0,0,0,14.05,8.09,37.5,37.5,0,0,0,7.78,1.79,34.68,34.68,0,0,0,3.92.25c.64,0,1.27,0,1.88-.06l.87-.07.38,0,.16,0s.11,0,0,0l2.13-.18,2,0c.69,0,1.34.05,2.11,0,1.48,0,3-.07,4.45-.17,3-.18,5.95-.5,8.89-1a80,80,0,0,0,17.05-4.59,57.67,57.67,0,0,0,7.8-3.74,49.51,49.51,0,0,0,7-4.83,45.29,45.29,0,0,0,10.77-12.91,21.35,21.35,0,0,0,1-1.9c.3-.64.65-1.27.93-1.93.52-1.34,1.14-2.65,1.55-4,.23-.69.48-1.38.69-2.07l.56-2.13.29-1.06.28-1.17.56-2.38c.76-3.18,1.52-6.35,2.35-9.51s1.64-6.32,2.51-9.47c1.76-6.31,3.68-12.58,5.88-18.81,1.14-3.11,2.26-6.21,3.64-9.28.32-.77.67-1.54,1-2.31s.73-1.53,1.14-2.3.82-1.54,1.26-2.31c.25-.4.48-.78.75-1.18a12.74,12.74,0,0,1,1.07-1.44l.46-.54.4-.16a7.62,7.62,0,0,0,2.85-3.43,32.07,32.07,0,0,0,2.18-5.58c.6-2,1.08-4,1.49-6.12s.75-4.22,1-6.28l0-.37.05-.15a40.23,40.23,0,0,0,2-8.33,47.78,47.78,0,0,0,.39-8.72,58.48,58.48,0,0,0-1-8.81A61,61,0,0,0,389.44,204.48Zm0,0a53.62,53.62,0,0,1,3.47,8.35,60.37,60.37,0,0,1,2.15,8.87,46.43,46.43,0,0,1,.64,9.22,44.24,44.24,0,0,1-1.3,9.31l.1-.53c0,2.31-.15,4.51-.35,6.76s-.5,4.49-.93,6.75a36.67,36.67,0,0,1-1.94,6.84,18.33,18.33,0,0,1-1.81,3.47,11.15,11.15,0,0,1-3.3,3.26l.86-.7c.11-.1-.18.32-.29.56l-.47.92c-.3.66-.61,1.32-.88,2s-.57,1.4-.82,2.13-.53,1.45-.77,2.19c-1,2.94-1.87,6-2.7,9-1.65,6.12-3,12.37-4.26,18.62-.63,3.13-1.25,6.27-1.8,9.42s-1.11,6.31-1.63,9.47l-.4,2.37-.21,1.2-.26,1.3-.52,2.6c-.21.86-.45,1.72-.67,2.58-.42,1.73-1.06,3.41-1.62,5.11-.29.85-.67,1.67-1,2.51s-.68,1.67-1.1,2.48A57.27,57.27,0,0,1,362,350a58.83,58.83,0,0,1-7.34,8.11,62.86,62.86,0,0,1-8.59,6.63,70.63,70.63,0,0,1-9.42,5.14,92.26,92.26,0,0,1-20.05,6.39c-3.41.7-6.85,1.22-10.31,1.59-1.73.19-3.48.32-5.23.43s-3.7.08-5.54.11l2.13-.18-.61.13-.45.07-.82.13c-.54.08-1.05.13-1.56.19-1,.1-2,.16-3,.19a49.06,49.06,0,0,1-5.83-.16,54,54,0,0,1-11.31-2.18,59.47,59.47,0,0,1-20-10.62,78.61,78.61,0,0,1-15-16.05,107.13,107.13,0,0,1-10.49-18.48l-.39-.86-.22-1.08c-1.15-5.42-2.45-11-3.82-16.51s-2.84-11-4.42-16.34-3.26-10.69-5.18-15.7c-1-2.49-2-4.92-3.07-7.08-.54-1.07-1.1-2.09-1.62-2.9l-.39-.61-.35-.45c-.25-.38-.36-.37-.48-.57l13.39-.15a10.29,10.29,0,0,1-1.72,1.36,7.58,7.58,0,0,1-.71.4c-.17.09-.35.17-.54.25a9.56,9.56,0,0,1-3.26.81c-.27,0-.54,0-.82,0a10.15,10.15,0,0,1-1.66-.16c-.27-.05-.54-.11-.8-.18l-.36-.1-.2-.07a7.77,7.77,0,0,1-.8-.31,11.55,11.55,0,0,1-1.52-.8l-.35-.24-.17-.11-.08-.06-.31-.25c-.2-.17-.4-.34-.6-.53s-.38-.36-.56-.56l-.27-.29-.14-.16c-.34-.43-.67-.87-1-1.33s-.37-.6-.55-.92-.36-.65-.46-.85l-.32-.69-.31-.69-.24-.6-.46-1.18-.37-1.08-.36-1.07-.31-1c-.84-2.73-1.44-5.28-2-7.86s-1.11-5.08-1.6-7.6c-.26-1.26-.48-2.51-.72-3.77s-.48-2.47-.69-3.83l-.63-4c-.2-1.34-.33-2.73-.49-4.09s-.23-2.8-.32-4.22-.09-2.92-.08-4.42v-1.13l.09-1.2.21-2.41.46-2.62a9.63,9.63,0,0,1,.34-1.39l.42-1.44c.08-.25.14-.47.24-.73l.34-.81c.23-.53.47-1.07.72-1.59a19.82,19.82,0,0,1,1.06-1.74l.58-.85c.25-.31.53-.62.8-.92a14.39,14.39,0,0,1,4.3-3.28,12.13,12.13,0,0,1,1.42-.61c.52-.18,1.05-.33,1.58-.46a14.06,14.06,0,0,1,1.76-.27c.27,0,.7,0,1,0h.55c.3,0,.71.06,1.06.11l-10.86,8.77c.3-3.94.65-7.63,1-11.43s.84-7.54,1.32-11.3c1-7.52,2.1-15,3.57-22.55s3.15-15,5.39-22.56c1.13-3.77,2.39-7.54,3.92-11.32a66.58,66.58,0,0,1,5.83-11.41l.68-1.05.79-.69c.48-.41.81-.68,1.18-1s.72-.57,1.07-.84c.71-.56,1.42-1.1,2.12-1.6,1.41-1.06,2.85-2,4.28-3,2.89-1.89,5.83-3.68,8.83-5.34a122.08,122.08,0,0,1,18.74-8.42,116.66,116.66,0,0,1,19.91-5.22l2.54-.44c.85-.15,1.71-.2,2.56-.3l5.13-.53c1.72-.13,3.44-.14,5.16-.21s3.43-.15,5.15-.06A105,105,0,0,1,322,89.53a112,112,0,0,1,19.41,6.21,136,136,0,0,1,33.89,21.19l.33.28.08.08.25.27.11.14.21.26.3.44.49.78c.27.49.54,1,.76,1.45.47.94.86,1.86,1.22,2.77.71,1.83,1.32,3.63,1.85,5.44,1.07,3.6,1.89,7.2,2.64,10.8,1.45,7.19,2.48,14.38,3.32,21.58s1.5,14.4,2,21.61c.21,3.61.4,7.21.53,10.82S389.6,200.87,389.44,204.48Z" transform="translate(-48.25 -87.09)"/><text class="cls-2" className="logo" transform="translate(0.5 410.82)">N	I	N	J	A</text></svg>