
<svg className="icon" version="1.1" id="Layer_1" xmlns="http://www.w3.org/2000/svg" xmlns:xlink="http://www.w3.org/1999/xlink" x="0px" y="0px"
	 viewBox="0 0 1596 765" >
<style type="text/css">
 .st0{clip-path:url(#SVGID_2_);}
	.st1{clip-path:url(#SVGID_4_);fill:#4D4D4D;}
	.st2{clip-path:url(#SVGID_4_);fill:#FBDAA6;}
	.st3{clip-path:url(#SVGID_4_);fill:#B3B3B3;}
	.st4{clip-path:url(#SVGID_6_);}
	.st5{clip-path:url(#SVGID_8_);fill:#4D4D4D;}
	.st6{clip-path:url(#SVGID_8_);fill:#FBDAA6;}
	.st7{clip-path:url(#SVGID_8_);fill:#B3B3B3;}
	.st8{clip-path:url(#SVGID_10_);}
	.st9{clip-path:url(#SVGID_12_);fill:#333333;}
	.st10{clip-path:url(#SVGID_12_);fill:#1A1A1A;}
	.st11{clip-path:url(#SVGID_12_);fill:#FBDBA8;}
	.st12{clip-path:url(#SVGID_12_);fill:none;stroke:#FBDBA8;stroke-width:5.162;stroke-miterlimit:10;}
	.st13{clip-path:url(#SVGID_12_);}
	.heroimage:hover {
		fill: #467abb;
	}
</style>
<g>
	<g>
		<defs>
			<rect id="SVGID_1_" x="517" y="98" width="1366" height="768"/>
		</defs>
		<clipPath id="SVGID_2_">
			<use xlink:href="#SVGID_1_"  style="overflow:visible;"/>
		</clipPath>
		<g class="st0">
			<defs>
				<rect id="SVGID_3_" x="517" y="98" width="1366" height="768"/>
			</defs>
			<clipPath id="SVGID_4_">
				<use xlink:href="#SVGID_3_"  style="overflow:visible;"/>
			</clipPath>
			<path class="st1" d="M874.8,540.29c0,0,120.89-34.09,209.19,75.22l-8.41,6.31l16.82,10.51l8.41-10.51l-21.02-12.61l10.51-10.51
				l16.82,16.82l428.85-386.81c0,0,63.07,27.33-31.53,107.21c-94.6,79.88-369.99,311.13-369.99,311.13l21.02,18.92l-8.41,8.41
				l-21.02-16.82l-75.68,67.27c0,0-50.45,21.02-29.43-31.53l4.2-14.72c0,0-37.84-71.47-151.36-50.45
				C873.76,628.12,802.26,591.2,874.8,540.29"/>
			<path class="st2" d="M1075.57,621.81l-58.39,45.63c0,0,22.59,55.57,43.64,48.06l56.44-50.16
				C1117.26,665.34,1111.31,630.22,1075.57,621.81"/>
			<path class="st3" d="M1527.83,236.03l-419.87,378.71l26.34,31.6l374.19-313.23c0,0,86.19-67.27,27.33-105.11L1527.83,236.03z"/>
		</g>
	</g>
</g>
<g>
	<g>
		<defs>
			<rect id="SVGID_5_" x="-292" y="98" width="1366" height="768"/>
		</defs>
		<clipPath id="SVGID_6_">
			<use xlink:href="#SVGID_5_"  style="overflow:visible;"/>
		</clipPath>
		<g class="st4">
			<defs>
				<rect id="SVGID_7_" x="-292" y="98" width="1366" height="768"/>
			</defs>
			<clipPath id="SVGID_8_">
				<use xlink:href="#SVGID_7_"  style="overflow:visible;"/>
			</clipPath>
			<path class="st5" d="M715.04,540.29c0,0-120.89-34.09-209.19,75.22l8.41,6.31l-16.82,10.51l-8.41-10.51l21.02-12.61l-10.51-10.51
				l-16.82,16.82L53.88,228.7c0,0-63.07,27.33,31.53,107.21c94.6,79.88,369.99,311.13,369.99,311.13l-21.02,18.92l8.41,8.41
				l21.02-16.82l75.68,67.27c0,0,50.45,21.02,29.43-31.53l-4.2-14.72c0,0,37.84-71.47,151.36-50.45
				C716.08,628.12,787.58,591.2,715.04,540.29"/>
			<path class="st6" d="M514.26,621.81l58.39,45.63c0,0-22.59,55.57-43.64,48.06l-56.44-50.16
				C472.57,665.34,478.53,630.22,514.26,621.81"/>
			<path class="st7" d="M62.01,236.03l419.87,378.71l-26.34,31.6L81.34,333.11c0,0-86.19-67.27-27.33-105.11L62.01,236.03z"/>
		</g>
	</g>
</g>
<g>
	<g>
		<defs>
			<rect id="SVGID_9_" x="186" y="-28" width="1366" height="768"/>
		</defs>
		<clipPath id="SVGID_10_">
			<use xlink:href="#SVGID_9_"  style="overflow:visible;"/>
		</clipPath>
		<g class="st8">
			<defs>
				<rect id="SVGID_11_" x="186" y="-28" width="1366" height="768"/>
			</defs>
			<clipPath id="SVGID_12_">
				<use xlink:href="#SVGID_11_"  style="overflow:visible;"/>
			</clipPath>
			<path class="st9" d="M547.16,308.2l-0.15-1.03c0.03,0.35,0.07,0.69,0.1,1.01c0.6,6.28,1.46,12.49,2.55,18.62L547.16,308.2z
				 M721.03,520.25L549.71,327.09c16.19,92.03,83.37,166.47,171.32,193.18c22.73,6.88,46.84,10.6,71.83,10.6
				c30.18,0,59.09-5.42,85.83-15.35C845.06,526.38,793.49,533.69,721.03,520.25 M929.43,489.67l-15.16-7.11l14.52,7
				c0,0-0.88,0.83-2.68,2.27C927.23,491.14,928.33,490.41,929.43,489.67 M977.74,120.24C932.48,69.18,866.42,37,792.85,37
				c-136.37,0-246.93,110.56-246.93,246.93c0,7.26,0.31,14.45,0.95,21.54c0.02,0.29,0.03,0.58,0.07,0.88l0.91-0.4l429.87-185.71
				c22.77,28.43,38.37,55.98,48.37,82.39C1015.41,171.96,998.83,144.03,977.74,120.24 M929.85,489.36
				c56.68-37.82,96.79-98.48,107.26-168.85C1018.45,419.02,936.3,484.36,929.85,489.36"/>
			<path class="st9"  d="M1176.59,193.59c0,0-101.53,4.24-136.8,76.11c0,0,71.41-24.49,121.32,15.09L1176.59,193.59z"/>
			<path class="st9" d="M1192.08,345.02c0,0-63.67-67.11-153.15-75.71c0,0,68.83,65.39,68.83,117.01L1192.08,345.02z"/>
			<path class="st9" d="M927.08,675.42c3.54,0.89,6.88-1.97,6.62-5.61c-0.62-8.71-2.34-17.31-5.13-25.6
				c-10.43-30.99-43.37-98.42-89.26-144.31c-57.81-57.81-111.85-5.16-165.2,92.92c0,0-25.81,51.62-15.49,82.6H927.08z"/>
			<path class="st10" d="M1026.09,202.64c-10-26.41-25.61-53.96-48.37-82.39L547.85,305.96l-0.91,0.4c0.02,0.28,0.05,0.53,0.07,0.81
				l0.16,1.03l2.49,18.6c0,0.1,0.02,0.19,0.05,0.29l171.32,193.16c72.46,13.44,124.03,6.13,157.66-4.73
				c0.09-0.02,0.15-0.05,0.22-0.07c16.66-6.19,32.45-14.14,47.2-23.61c1.81-1.45,2.68-2.27,2.68-2.27l-14.52-7l15.16,7.11l0.02-0.02
				c0.02-0.02,0.07-0.05,0.14-0.1c0.07-0.05,0.15-0.12,0.26-0.19c6.45-5.01,88.6-70.35,107.26-168.84
				c1.77-11.94,2.68-24.16,2.68-36.58C1039.79,255.46,1034.97,228.1,1026.09,202.64 M936.54,413
				c-61.95,58.51-61.95,39.58-61.95,39.58s-0.67-0.19-1.94-0.5c-0.28-0.09-0.59-0.15-0.93-0.24c-1.77-0.45-4.34-1.08-7.52-1.82
				c-0.43-0.1-0.88-0.21-1.33-0.31c-2.29-0.53-4.83-1.1-7.62-1.7c-1.08-0.24-2.22-0.48-3.37-0.72c-0.62-0.12-1.26-0.26-1.89-0.38
				c-0.6-0.14-1.22-0.26-1.86-0.38c-1.26-0.26-2.53-0.5-3.84-0.76c-1.81-0.34-3.67-0.7-5.56-1.05c-0.17-0.02-0.34-0.05-0.52-0.09
				c-0.69-0.14-1.39-0.26-2.1-0.38c-0.71-0.12-1.41-0.24-2.13-0.36c-1.17-0.21-2.36-0.41-3.56-0.6c-1.72-0.27-3.48-0.57-5.25-0.83
				c-2.12-0.33-4.25-0.64-6.42-0.93c-1-0.14-1.98-0.28-2.99-0.4c-0.88-0.12-1.76-0.22-2.63-0.33c-1.6-0.19-3.22-0.38-4.84-0.55
				c-1.55-0.15-3.08-0.31-4.63-0.45c-1-0.1-2.01-0.19-3.03-0.26c-2.01-0.17-4.04-0.31-6.04-0.41c-0.07-0.02-0.14-0.02-0.19-0.02
				c-0.95-0.05-1.88-0.1-2.82-0.14c-1.77-0.09-3.54-0.14-5.3-0.17c-0.55-0.02-1.08-0.02-1.62-0.02
				c-13.78-0.15-26.47,1.22-35.69,5.18c-36.14,15.49-56.79,3.44-56.79,3.44c-3.79-2.62-7.38-5.16-10.77-7.66
				c-4.25-3.13-8.21-6.18-11.91-9.12c-0.74-0.6-1.46-1.19-2.19-1.77c-1.43-1.17-2.82-2.34-4.18-3.48c-1.34-1.14-2.65-2.27-3.92-3.41
				h-0.02c-1.27-1.14-2.49-2.24-3.68-3.34c-0.6-0.55-1.21-1.1-1.77-1.64c-1.15-1.1-2.27-2.18-3.34-3.23
				c-1.07-1.07-2.12-2.12-3.13-3.17c-3.01-3.13-5.7-6.18-8.1-9.14c-0.79-1-1.57-1.96-2.31-2.93c-1.1-1.45-2.15-2.87-3.11-4.3
				c-0.64-0.93-1.24-1.86-1.84-2.77c-1.17-1.84-2.24-3.67-3.2-5.46c-0.46-0.88-0.91-1.76-1.36-2.63c-0.84-1.74-1.62-3.48-2.27-5.18
				c-0.34-0.84-0.65-1.69-0.95-2.51c-2.91-8.4-3.66-16.14-3.44-23.59c0.04-1.46,0.12-2.93,0.22-4.37c0.02-0.17,0.04-0.36,0.05-0.53
				c0.05-0.67,0.1-1.32,0.17-2c0.12-1.24,0.26-2.49,0.41-3.72c0.02-0.26,0.05-0.5,0.09-0.76c3.44-27.53,72.27-6.88,120.46,5.16
				c48.18,12.05,87.76,0,87.76,0c80.88-29.25,134.22-12.05,134.22-12.05S998.49,354.49,936.54,413"/>
			<path class="st11"  d="M737.22,399.59l-99.24-28.76l-8.6-17.21l34.88,11.77l-43.12-20.2c-0.07,0.67-0.12,1.33-0.17,2
				c-0.02,0.17-0.03,0.36-0.05,0.53c-0.1,1.45-0.19,2.91-0.22,4.37c-0.22,7.45,0.53,15.19,3.44,23.59c0.29,0.83,0.6,1.67,0.95,2.51
				c0.65,1.7,1.43,3.44,2.27,5.18c0.45,0.88,0.89,1.75,1.36,2.63c0.96,1.79,2.03,3.61,3.2,5.45c0.6,0.91,1.21,1.84,1.84,2.77
				c0.96,1.43,2.01,2.86,3.11,4.3c0.74,0.96,1.51,1.93,2.31,2.93c2.41,2.96,5.09,6,8.11,9.14c1.01,1.05,2.06,2.1,3.13,3.17
				c1.07,1.05,2.18,2.13,3.34,3.23c0.57,0.53,1.17,1.08,1.77,1.63c1.19,1.1,2.41,2.2,3.68,3.34h0.02c1.26,1.12,2.58,2.25,3.92,3.41
				c1.36,1.14,2.75,2.31,4.18,3.48c0.72,0.58,1.45,1.17,2.19,1.77c3.7,2.94,7.66,5.99,11.91,9.12c3.39,2.49,6.99,5.04,10.77,7.66
				c0,0,20.65,12.05,56.79-3.44c9.22-3.96,21.91-5.34,35.69-5.18c0.53,0,1.07,0,1.62,0.02c1.75,0.03,3.53,0.09,5.3,0.17
				c0.95,0.03,1.88,0.09,2.82,0.14c0.05,0,0.12,0,0.19,0.02c2,0.1,4.03,0.24,6.04,0.41c1.01,0.07,2.03,0.15,3.03,0.26
				c1.55,0.14,3.08,0.27,4.63,0.45c1.62,0.17,3.23,0.36,4.84,0.55c0.88,0.1,1.77,0.21,2.63,0.33c1.02,0.12,2,0.26,2.99,0.39
				c2.17,0.29,4.3,0.6,6.42,0.93c1.77,0.26,3.51,0.53,5.21,0.81L737.22,399.59z M677.56,405.25c0,0,1.72,6.88-6.88-13.77
				l-20.65-5.16l95.35,18.93H677.56z"/>
			<path class="st12 "  d="M737.22,399.59l-99.24-28.76l-8.6-17.21l34.88,11.77l-43.12-20.2c-0.07,0.67-0.12,1.33-0.17,2
				c-0.02,0.17-0.03,0.36-0.05,0.53c-0.1,1.45-0.19,2.91-0.22,4.37c-0.22,7.45,0.53,15.19,3.44,23.59c0.29,0.83,0.6,1.67,0.95,2.51
				c0.65,1.7,1.43,3.44,2.27,5.18c0.45,0.88,0.89,1.75,1.36,2.63c0.96,1.79,2.03,3.61,3.2,5.45c0.6,0.91,1.21,1.84,1.84,2.77
				c0.96,1.43,2.01,2.86,3.11,4.3c0.74,0.96,1.51,1.93,2.31,2.93c2.41,2.96,5.09,6,8.11,9.14c1.01,1.05,2.06,2.1,3.13,3.17
				c1.07,1.05,2.18,2.13,3.34,3.23c0.57,0.53,1.17,1.08,1.77,1.63c1.19,1.1,2.41,2.2,3.68,3.34h0.02c1.26,1.12,2.58,2.25,3.92,3.41
				c1.36,1.14,2.75,2.31,4.18,3.48c0.72,0.58,1.45,1.17,2.19,1.77c3.7,2.94,7.66,5.99,11.91,9.12c3.39,2.49,6.99,5.04,10.77,7.66
				c0,0,20.65,12.05,56.79-3.44c9.22-3.96,21.91-5.34,35.69-5.18c0.53,0,1.07,0,1.62,0.02c1.75,0.03,3.53,0.09,5.3,0.17
				c0.95,0.03,1.88,0.09,2.82,0.14c0.05,0,0.12,0,0.19,0.02c2,0.1,4.03,0.24,6.04,0.41c1.01,0.07,2.03,0.15,3.03,0.26
				c1.55,0.14,3.08,0.27,4.63,0.45c1.62,0.17,3.23,0.36,4.84,0.55c0.88,0.1,1.77,0.21,2.63,0.33c1.02,0.12,2,0.26,2.99,0.39
				c2.17,0.29,4.3,0.6,6.42,0.93c1.77,0.26,3.51,0.53,5.21,0.81L737.22,399.59z M677.56,405.25c0,0,1.72,6.88-6.88-13.77
				l-20.65-5.16l95.35,18.93H677.56z"/>
			<path class="st11"  d="M964.07,333.84c0,0-53.34-17.21-134.22,12.05c0,0-39.58,12.05-87.76,0
				c-48.18-12.05-117.01-32.7-120.46-5.16c-0.03,0.26-0.07,0.5-0.09,0.76c-0.16,1.22-0.29,2.48-0.41,3.72l43.12,20.2l97.62,32.97
				l-5.16,6.88l-19.5-5.66l93.16,43.67l0.04,0.02c1.94,0.31,3.84,0.62,5.7,0.96c0.71,0.12,1.41,0.24,2.1,0.38
				c0.17,0.03,0.34,0.07,0.52,0.09c1.91,0.35,3.75,0.69,5.56,1.05c1.31,0.26,2.58,0.5,3.84,0.76c0.64,0.12,1.26,0.24,1.86,0.38
				c0.64,0.12,1.27,0.26,1.89,0.38c1.15,0.24,2.29,0.48,3.37,0.72c2.79,0.6,5.33,1.17,7.62,1.7c0.45,0.1,0.9,0.21,1.33,0.31
				c3.18,0.74,5.75,1.38,7.52,1.82c0.35,0.09,0.65,0.15,0.93,0.24c1.27,0.31,1.94,0.5,1.94,0.5s0,18.93,61.95-39.58
				C998.49,354.49,964.07,333.84,964.07,333.84 M913.31,391.49c-8.6,20.65-6.88,13.77-6.88,13.77h-67.82l95.35-18.93L913.31,391.49z
				 M946.01,370.83l-118.74,34.42l-5.16-6.88l132.5-44.74L946.01,370.83z"/>
			<path class="st12"  d="M964.07,333.84c0,0-53.34-17.21-134.22,12.05c0,0-39.58,12.05-87.76,0
				c-48.18-12.05-117.01-32.7-120.46-5.16c-0.03,0.26-0.07,0.5-0.09,0.76c-0.16,1.22-0.29,2.48-0.41,3.72l43.12,20.2l97.62,32.97
				l-5.16,6.88l-19.5-5.66l93.16,43.67l0.04,0.02c1.94,0.31,3.84,0.62,5.7,0.96c0.71,0.12,1.41,0.24,2.1,0.38
				c0.17,0.03,0.34,0.07,0.52,0.09c1.91,0.35,3.75,0.69,5.56,1.05c1.31,0.26,2.58,0.5,3.84,0.76c0.64,0.12,1.26,0.24,1.86,0.38
				c0.64,0.12,1.27,0.26,1.89,0.38c1.15,0.24,2.29,0.48,3.37,0.72c2.79,0.6,5.33,1.17,7.62,1.7c0.45,0.1,0.9,0.21,1.33,0.31
				c3.18,0.74,5.75,1.38,7.52,1.82c0.35,0.09,0.65,0.15,0.93,0.24c1.27,0.31,1.94,0.5,1.94,0.5s0,18.93,61.95-39.58
				C998.49,354.49,964.07,333.84,964.07,333.84z M913.31,391.49c-8.6,20.65-6.88,13.77-6.88,13.77h-67.82l95.35-18.93L913.31,391.49
				z M946.01,370.83l-118.74,34.42l-5.16-6.88l132.5-44.74L946.01,370.83z"/>
			<path class="st10"  d="M926.11,491.84c-5.78,4.54-21.05,15.14-47.2,23.61C895.57,509.26,911.37,501.31,926.11,491.84"/>
			<polygon class="st13 " points="761.88,398.37 756.72,405.25 737.22,399.59 637.98,370.84 629.38,353.63 664.26,365.4 			"/>
			<path class="st13"   class="heroimage"   d="M677.56,405.25c0,0,1.72,6.88-6.88-13.77l-20.65-5.16l95.35,18.93H677.56z"/>
			<polygon  class="st13 " points="954.61,353.63 946.01,370.84 827.27,405.25 822.11,398.37 			"/>
			<path  class="st13 " class="heroimage"  d="M933.96,386.32l-20.65,5.16c-8.6,20.65-6.88,13.77-6.88,13.77h-67.82L933.96,386.32z"/>
			<path class="st10" d="M745.38,524.11l133.31,151.31l55.03,0.16c0,0,2.03-46.39-37.58-99.85
				C896.13,575.73,814.92,414.09,745.38,524.11"/>
		</g>
	</g>
</g>
</svg>
